<svg id="Capa_1" enable-background="new 0 0 512 512" height="512" viewBox="0 0 512 512" width="512" xmlns="http://www.w3.org/2000/svg"><g><path d="m61.614 183.746c-4.294 0-8.544-1.836-11.499-5.359l-29.753-35.458c-14.938-17.802-22.049-40.355-20.023-63.505 2.025-23.15 12.944-44.125 30.746-59.063 17.801-14.937 40.355-22.044 63.505-20.024 23.15 2.025 44.126 12.945 59.062 30.747l35.815 42.683c2.667 3.178 3.898 7.318 3.402 11.437-.497 4.119-2.677 7.848-6.022 10.301l-116.372 85.337c-2.665 1.954-5.775 2.904-8.861 2.904z" fill="#c6def0"/><path d="m112.251 132.083c-4.281 0-8.531-1.823-11.498-5.359l-25.241-30.081c-5.325-6.346-4.498-15.807 1.849-21.132 6.345-5.325 15.808-4.497 21.132 1.849l25.241 30.082c5.325 6.346 4.498 15.807-1.849 21.132-2.81 2.358-6.232 3.509-9.634 3.509z" fill="#647882"/><path d="m450.386 183.747c-3.087 0-6.195-.949-8.861-2.904l-116.372-85.337c-3.346-2.453-5.525-6.182-6.022-10.301-.496-4.119.735-8.259 3.402-11.437l35.815-42.683c14.936-17.801 35.912-28.721 59.062-30.746 23.158-2.026 45.704 5.086 63.505 20.023 17.802 14.937 28.721 35.913 30.746 59.063s-5.085 45.704-20.023 63.505l-29.753 35.458c-2.955 3.523-7.205 5.359-11.499 5.359z" fill="#a0c8e6"/><path d="m399.749 132.083c-3.402 0-6.823-1.151-9.634-3.51-6.347-5.325-7.174-14.786-1.849-21.132l25.241-30.082c5.323-6.347 14.785-7.175 21.132-1.849 6.347 5.325 7.174 14.786 1.849 21.132l-25.241 30.082c-2.966 3.536-7.218 5.359-11.498 5.359z" fill="#465a64"/><path d="m355.964 485.179h-199.928c-2.086 0-4.148-.435-6.057-1.277-40.882-18.042-75.496-46.124-100.1-81.209-25.435-36.271-38.879-78.351-38.879-121.693 0-60.36 25.659-117.029 72.251-159.57 46.212-42.193 107.562-65.43 172.749-65.43s126.537 23.237 172.749 65.43c46.592 42.541 72.251 99.21 72.251 159.57 0 43.342-13.444 85.422-38.88 121.693-24.604 35.085-59.218 63.167-100.1 81.209-1.908.842-3.97 1.277-6.056 1.277z" fill="#e4eff8"/><path d="m355.964 485.179c2.086 0 4.148-.435 6.057-1.277 40.882-18.042 75.496-46.124 100.1-81.209 25.435-36.271 38.879-78.351 38.879-121.693 0-60.36-25.659-117.029-72.251-159.57-46.212-42.193-107.562-65.43-172.749-65.43v429.179z" fill="#c6def0"/><path d="m311.66 512h-111.32c-18.126 0-35.56-7.65-47.833-20.988-12.272-13.338-18.448-31.348-16.942-49.41l8.014-96.158c2.356-28.278 15.154-54.434 36.036-73.647 20.881-19.215 48.008-29.797 76.385-29.797s55.504 10.582 76.386 29.796 33.68 45.369 36.036 73.647l8.014 96.159c1.506 18.062-4.67 36.071-16.942 49.41-12.274 13.338-29.708 20.988-47.834 20.988z" fill="#c6def0"/><path d="m311.66 512c18.126 0 35.56-7.65 47.833-20.988 12.272-13.338 18.448-31.348 16.942-49.41l-8.014-96.159c-2.356-28.278-15.154-54.434-36.036-73.647-20.881-19.214-48.008-29.796-76.385-29.796v270z" fill="#a0c8e6"/><path d="m286 422h-15v-32.58c17.459-6.192 30-22.865 30-42.42 0-24.813-20.187-45-45-45s-45 20.187-45 45c0 19.555 12.541 36.228 30 42.42v32.58h-15c-8.284 0-15 6.716-15 15s6.716 15 15 15h60c8.284 0 15-6.716 15-15s-6.716-15-15-15z" fill="#647882"/><path d="m286 452c8.284 0 15-6.716 15-15s-6.716-15-15-15h-15v-32.58c17.459-6.192 30-22.865 30-42.42 0-24.813-20.187-45-45-45v150z" fill="#465a64"/><circle cx="361" cy="222" fill="#465a64" r="15"/><circle cx="151" cy="222" fill="#647882" r="15"/></g></svg>